<svg width="100" height="20" viewBox="0 0 100 20" fill="none" xmlns="http://www.w3.org/2000/svg">
<g id="Frame">
<path id="Vector" d="M35.3313 15.335C35.7167 15.335 35.9912 15.26 36.1547 15.11C36.3298 14.97 36.4174 14.73 36.4174 14.39V3.87499H38.5547V14.735C38.5547 15.475 38.3152 16.03 37.8364 16.4C37.3576 16.77 36.6977 16.955 35.8568 16.955H35.489L35.3313 15.335ZM42.5521 3.87499H49.4368V5.55499H44.6893V8.02999H48.3506V9.70999H44.6893V12.695H49.5944V14.375H42.5521V3.87499ZM51.8204 3.87499H53.9576L55.7444 11.63L57.8116 4.06999H60.089L62.1561 11.63L63.943 3.87499H66.0802L63.3474 14.375H61.07L58.9503 6.81499L56.8306 14.375H54.5532L51.8204 3.87499ZM68.9459 3.87499H75.8306V5.55499H71.0831V8.02999H74.7444V9.70999H71.0831V12.695H75.9882V14.375H68.9459V3.87499ZM79.4054 3.87499H81.5426V12.695H85.6769V14.375H79.4054V3.87499ZM91.7678 14.585C91.1371 14.585 90.5065 14.525 89.8758 14.405C89.2568 14.295 88.7138 14.14 88.2466 13.94L88.5094 11.9C89.7006 12.46 90.8335 12.74 91.9079 12.74C92.4685 12.74 92.9065 12.645 93.2218 12.455C93.5371 12.255 93.6948 11.975 93.6948 11.615C93.6948 11.345 93.613 11.115 93.4495 10.925C93.2977 10.725 93.0466 10.535 92.6963 10.355C92.3576 10.165 91.8671 9.94499 91.2247 9.69499C90.1853 9.29499 89.4262 8.86999 88.9474 8.41999C88.4802 7.96999 88.2466 7.37999 88.2466 6.64999C88.2466 6.06999 88.4101 5.55499 88.7371 5.10499C89.0641 4.65499 89.5371 4.30499 90.1561 4.05499C90.7751 3.79499 91.5109 3.66499 92.3634 3.66499C93.4262 3.66499 94.489 3.86999 95.5517 4.27999L95.324 6.25999C94.7284 6.00999 94.1795 5.82499 93.6773 5.70499C93.1868 5.57499 92.6904 5.50999 92.1882 5.50999C91.651 5.50999 91.2364 5.59999 90.9444 5.77999C90.6641 5.95999 90.524 6.22499 90.524 6.57499C90.524 6.84499 90.6174 7.07499 90.8043 7.26499C90.9911 7.44499 91.2189 7.60499 91.4875 7.74499C91.7678 7.87499 92.27 8.08499 92.9941 8.37499C94.0335 8.80499 94.7868 9.25499 95.2539 9.725C95.7328 10.195 95.9722 10.8 95.9722 11.54C95.9722 12.47 95.5984 13.21 94.851 13.76C94.1036 14.31 93.0758 14.585 91.7678 14.585Z" fill="black"/>
<path id="Vector_2" d="M5.43059 14.585C3.98241 14.585 2.89044 14.21 2.15467 13.46C1.41891 12.7 1.05103 11.655 1.05103 10.325V3.875H3.18825V9.83C3.18825 10.78 3.34592 11.505 3.66124 12.005C3.98825 12.495 4.57803 12.74 5.43059 12.74C6.29482 12.74 6.8846 12.495 7.19993 12.005C7.51526 11.505 7.67292 10.78 7.67292 9.83V3.875H9.81015V10.325C9.81015 11.655 9.44227 12.7 8.7065 13.46C7.97073 14.21 6.87876 14.585 5.43059 14.585ZM13.6662 3.875H17.2399C18.5129 3.875 19.5173 4.17 20.2531 4.76C20.9888 5.34 21.3567 6.205 21.3567 7.355C21.3567 8.505 20.9888 9.375 20.2531 9.965C19.5173 10.545 18.5129 10.835 17.2399 10.835H15.8034V14.375H13.6662V3.875ZM17.0472 9.245C17.7363 9.245 18.256 9.1 18.6064 8.81C18.9684 8.52 19.1494 8.035 19.1494 7.355C19.1494 6.715 18.9626 6.24 18.5888 5.93C18.2268 5.62 17.7129 5.465 17.0472 5.465H15.8034V9.245H17.0472Z" fill="black"/>
<path id="Vector_3" d="M27.0073 20C29.0229 20 30.6569 18.4562 30.6569 16.5517C30.6569 14.6473 29.0229 13.1034 27.0073 13.1034C24.9917 13.1034 23.3577 14.6473 23.3577 16.5517C23.3577 18.4562 24.9917 20 27.0073 20Z" fill="#F56E0F"/>
</g>
</svg>
