<svg width="50" height="50" viewBox="0 0 50 50" fill="none" xmlns="http://www.w3.org/2000/svg">
<path d="M17.8643 35.4009H42.2858C43.101 35.4009 43.8126 34.7313 43.8126 33.8313C43.8126 32.9313 43.101 32.2616 42.2858 32.2616H18.2197C17.0268 32.2616 16.2947 31.4241 16.1063 30.1482L15.7715 27.9509H42.3268C45.3822 27.9509 46.9518 26.067 47.3911 23.075L49.0652 12.0045C49.1097 11.7416 49.1377 11.4762 49.1492 11.2098C49.1492 10.2054 48.3956 9.51429 47.2447 9.51429H13.0724L12.6742 6.85714C12.4652 5.24554 11.8795 4.42857 9.74559 4.42857H2.39917C1.56256 4.42857 0.850952 5.1625 0.850952 6C0.850952 6.85714 1.56256 7.59018 2.40006 7.59018H9.47238L12.8206 30.567C13.2608 33.5384 14.8295 35.4009 17.8643 35.4009ZM45.5911 12.6741L44.1072 22.6982C43.9394 23.9955 43.2492 24.7911 42.0143 24.7911L15.3126 24.8116L13.5331 12.6741H45.5911ZM19.5179 45.5714C19.9642 45.5751 20.4067 45.4899 20.8196 45.3209C21.2326 45.1518 21.6078 44.9022 21.9234 44.5867C22.2389 44.2711 22.4885 43.896 22.6575 43.483C22.8266 43.07 22.9118 42.6275 22.9081 42.1813C22.91 41.7355 22.8236 41.2938 22.6539 40.8817C22.4842 40.4695 22.2345 40.095 21.9194 39.7798C21.6042 39.4646 21.2297 39.215 20.8175 39.0453C20.4053 38.8756 19.9637 38.7892 19.5179 38.7911C17.6143 38.7911 16.1072 40.2982 16.1072 42.1813C16.1072 44.0857 17.6143 45.5714 19.5179 45.5714ZM39.084 45.5714C40.9885 45.5714 42.4947 44.0857 42.4947 42.1813C42.4947 40.2973 40.9885 38.7911 39.084 38.7911C37.201 38.7911 35.6733 40.2982 35.6733 42.1813C35.6733 44.0857 37.201 45.5714 39.084 45.5714Z" fill="black"/>
</svg>
