<svg width="40" height="30" viewBox="0 0 40 30" fill="none" xmlns="http://www.w3.org/2000/svg">
<g id="credit card">
<path d="M4.45212 21.2616C5.28892 21.2616 5.96728 20.5343 5.96728 19.6372C5.96728 18.7401 5.28892 18.0129 4.45212 18.0129C3.61532 18.0129 2.93696 18.7401 2.93696 19.6372C2.93696 20.5343 3.61532 21.2616 4.45212 21.2616Z" fill="black"/>
<path d="M0 3.63331H39.6884V7.11733H0V3.63331Z" fill="black"/>
<path d="M0.872529 4.5728C0.890704 4.41999 0.910869 4.27364 0.93318 4.13331H39.1884V6.61733H0.741166C0.762873 5.84041 0.802 5.16579 0.872529 4.5728ZM0.722387 7.61733H39.4917C39.4999 8.33187 39.5 9.1222 39.5 10V20C39.5 22.37 39.4992 24.1024 39.3416 25.4272C39.1851 26.7432 38.8809 27.5809 38.3302 28.2038C37.7872 28.8179 37.0699 29.1497 35.934 29.3226C34.7768 29.4986 33.259 29.5 31.1587 29.5H9.05543C6.95515 29.5 5.43732 29.4986 4.28008 29.3226C3.14427 29.1497 2.42692 28.8179 1.88396 28.2038C1.3332 27.5809 1.02905 26.7432 0.872529 25.4272C0.714957 24.1024 0.714122 22.37 0.714122 20V10C0.714122 9.1222 0.714237 8.33187 0.722387 7.61733ZM39.0543 3.13331H1.15986C1.33228 2.58328 1.56738 2.15426 1.88396 1.79619C2.42692 1.18207 3.14427 0.850258 4.28008 0.677436C5.43732 0.501353 6.95515 0.5 9.05543 0.5H31.1587C33.259 0.5 34.7768 0.501353 35.934 0.677436C37.0699 0.850258 37.7872 1.18207 38.3302 1.79618C38.6467 2.15426 38.8818 2.58328 39.0543 3.13331ZM4.45212 21.7616C5.59727 21.7616 6.46728 20.7771 6.46728 19.6372C6.46728 18.4973 5.59727 17.5129 4.45212 17.5129C3.30697 17.5129 2.43696 18.4973 2.43696 19.6372C2.43696 20.7771 3.30697 21.7616 4.45212 21.7616ZM5.46728 19.6372C5.46728 20.2915 4.98057 20.7616 4.45212 20.7616C3.92367 20.7616 3.43696 20.2915 3.43696 19.6372C3.43696 18.9829 3.92367 18.5129 4.45212 18.5129C4.98057 18.5129 5.46728 18.9829 5.46728 19.6372Z" stroke="black"/>
</g>
</svg>
