<svg width="50" height="50" viewBox="0 0 50 50" fill="none" xmlns="http://www.w3.org/2000/svg">
<path fill-rule="evenodd" clip-rule="evenodd" d="M40.1771 26.3437C41.6502 24.8474 42.4685 22.8273 42.4521 20.7277C42.4357 18.628 41.5859 16.6209 40.0896 15.1479C39.3487 14.4185 38.4714 13.8422 37.5078 13.4518C36.5442 13.0615 35.5132 12.8648 34.4736 12.8729C32.3739 12.8893 30.3668 13.7391 28.8938 15.2354C28.4938 15.6354 27.9854 16.1263 27.3688 16.7083L25.6542 18.3229L23.9396 16.7083C23.3215 16.125 22.8125 15.634 22.4125 15.2354C20.9279 13.7507 18.9142 12.9167 16.8146 12.9167C14.715 12.9167 12.7013 13.7507 11.2167 15.2354C8.15835 18.2958 8.12293 23.2437 11.1042 26.3187L25.6542 40.8687L40.1771 26.3437ZM9.44793 13.4687C10.4152 12.5011 11.5637 11.7336 12.8277 11.21C14.0917 10.6863 15.4464 10.4168 16.8146 10.4168C18.1828 10.4168 19.5375 10.6863 20.8015 11.21C22.0655 11.7336 23.214 12.5011 24.1813 13.4687C24.5604 13.8493 25.0514 14.3229 25.6542 14.8895C26.2542 14.3229 26.7452 13.8486 27.1271 13.4666C29.0657 11.4982 31.7068 10.3805 34.4694 10.3594C37.2321 10.3383 39.8899 11.4156 41.8583 13.3541C43.8267 15.2927 44.9444 17.9338 44.9655 20.6965C44.9866 23.4591 43.9094 26.117 41.9708 28.0854L27.1271 42.9312C26.7364 43.3218 26.2066 43.5412 25.6542 43.5412C25.1018 43.5412 24.5719 43.3218 24.1813 42.9312L9.33335 28.0833C7.42926 26.1195 6.37399 23.4857 6.39543 20.7504C6.41687 18.0152 7.5133 15.3982 9.44793 13.4645V13.4687Z" fill="black"/>
</svg>
